<svg aria-hidden="true" style="position:absolute;width:0;height:0;overflow:hidden" xmlns="http://www.w3.org/2000/svg">
  <defs>
    <symbol id="icon-catalog" viewBox="0 0 32 32">
      <path d="M22.472 21.449 32 12.397l-5.943-6.255-3.585 15.307zm7.373-9.107-4.726 4.489 1.778-7.592 2.948 3.103zM25.111 5.501l-.034-.008-8.443-1.977-.031.132 5.166 16.125 3.342-14.271zm-6.283.094 4.451 1.042-1.739 7.424-2.712-8.466zM7.116 6.069l.304.949 13.427 13.427.008-.026-5.448-17.007-8.291 2.657zm2.357.845 4.948-1.585 3.079 9.613-8.027-8.028zM21.501 22.478l.046-.047-15.39-15.39-.015.015-6.141 6.141 15.39 15.39 6.11-6.11zM6.156 9.197l13.235 13.235-4 4.001L2.156 13.198l4.001-4.001z"/>
      <path d="M15.438 21.193a1.334 1.334 0 1 1 0 2.667 1.334 1.334 0 0 1 0-2.667z"/>
    </symbol>
    <symbol id="icon-logo" viewBox="0 0 32 32">
      <path d="M14.558.195C12.093.428 9.33 1.423 7.265 2.809 3.535 5.302 1.098 9.153.363 13.721c-.195 1.153-.149 3.684.084 4.986.465 2.595 1.665 5.237 3.274 7.2.763.93 2.447 2.521 3.265 3.088 1.535 1.051 3.526 1.963 5.107 2.344 1.749.409 1.888.428 4 .428 1.814 0 2.223-.028 3.079-.205 2.977-.633 5.637-2.019 7.777-4.065 1.544-1.479 2.419-2.633 3.321-4.391 2.344-4.605 2.242-10.233-.279-14.707-1.591-2.828-3.888-5.07-6.633-6.484C21.963 1.208 20.884.808 19.479.51c-1.73-.381-3.293-.484-4.921-.316zm6.884 8.921v.326l-13.628.046-.056-.233c-.13-.54-.437-.512 6.93-.493l6.754.028v.326zm1.33.633c.093.093.288.521.419.958.93 2.94.94 6.493.019 9.395-.056.158.047.177 1.646.195 1.702.028 1.702.028 1.73.242.065.456.074.447-3.953.512-2.093.037-4.893.093-6.233.13-2.363.056-2.447.047-2.447-.121 0-.205-.326-.772-.549-.949-1.06-.846-2.456-.53-2.995.67l-.167.381-1.749-.056c-.958-.037-1.86-.093-2-.13-.298-.074-.456-.474-.688-1.767-.195-1.126-.279-4.419-.14-5.86.14-1.405.354-2.726.493-3.005.121-.233.586-.549.986-.67.14-.046 3.674-.084 7.86-.084 7.247-.009 7.609 0 7.767.158zm-9.87 10.149c.744.344 1.172 1.247.958 2.037-.223.846-.977 1.367-1.879 1.302-.949-.065-1.609-.791-1.609-1.767 0-.437.056-.595.279-.93.521-.744 1.442-1.005 2.251-.642z"/>
      <path d="M15.823 11.944c-.074.084-.093 1.33-.084 4.437l.028 4.316 1.767.028c1.581.019 1.777.009 1.879-.14.158-.205.177-8.316.028-8.595-.093-.167-.214-.177-1.805-.177-1.33 0-1.73.028-1.814.13zm3.517.084c.112.149.14 8.316.019 8.512-.056.084-.484.112-1.786.093l-1.712-.028-.028-4.233c-.009-2.326 0-4.288.028-4.354.065-.167 3.33-.158 3.479.009z"/>
      <path d="M16.251 12.344c-.112.102-.074 2.335.037 2.409.074.046 1.674.065 2.623.037.037 0 .065-.567.065-1.256v-1.256h-1.33c-.735 0-1.367.028-1.395.065zM16.279 16.465c0 .047.149.093.326.093s.326-.047.326-.093c0-.056-.149-.093-.326-.093s-.326.037-.326.093zM7.014 12.028c-.019.065-.028.707-.019 1.414l.028 1.302 2.679.046c1.944.037 2.707.019 2.772-.056.046-.065.074-.707.065-1.442l-.028-1.34-2.726-.028c-2.177-.019-2.735 0-2.772.102zM20.995 11.972c-.037.028-.065.679-.065 1.442v1.377h1.2c.66 0 1.265.028 1.349.056.121.046.149-.028.149-.474 0-.288-.065-.958-.149-1.498l-.158-.967h-1.135c-.623 0-1.163.028-1.191.065zM11.721 20.809c-.326.223-.372.307-.372.698 0 .595.558.958 1.126.726.335-.14.456-.344.456-.772 0-.251-.065-.381-.288-.567-.335-.279-.605-.307-.921-.084z"/>
    </symbol>
    <symbol id="icon-AC" viewBox="0 0 20 20">
      <path d="M9.69 2a4.1 4.1 0 0 0-2.573.906A3.987 3.987 0 0 0 5.71 5.212l-.072.36a.606.606 0 0 0 .256.65.63.63 0 0 0 .968-.41l.074-.357a2.763 2.763 0 0 1 1.086-1.676 2.842 2.842 0 0 1 3.748.367c.468.507.728 1.167.73 1.853a2.75 2.75 0 0 1-.824 1.958 2.836 2.836 0 0 1-1.989.812H.626a.63.63 0 0 0-.442.18.61.61 0 0 0 0 .87.63.63 0 0 0 .442.181h9.063a4.094 4.094 0 0 0 2.808-1.205A3.97 3.97 0 0 0 13.652 6a3.97 3.97 0 0 0-1.154-2.794A4.094 4.094 0 0 0 9.69 2Zm7.185 5.538a3.15 3.15 0 0 0-2.21.902 3.053 3.053 0 0 0-.915 2.175c0 .164.066.32.183.435a.63.63 0 0 0 .884 0 .61.61 0 0 0 .183-.435c0-.365.11-.722.316-1.025.206-.304.499-.54.841-.68a1.902 1.902 0 0 1 2.044.4 1.82 1.82 0 0 1 .406 2.012 1.853 1.853 0 0 1-.69.828c-.309.203-.671.311-1.042.311H.625a.63.63 0 0 0-.442.18.61.61 0 0 0 0 .871.63.63 0 0 0 .442.18h12.188c.414.001.811.164 1.103.453.293.29.457.68.456 1.089-.001.408-.166.799-.46 1.087a1.595 1.595 0 0 1-2.126.082 1.55 1.55 0 0 1-.538-.928l-.007-.037a.609.609 0 0 0-.248-.413.63.63 0 0 0-.983.37.608.608 0 0 0-.001.244l.006.037c.111.65.452 1.24.963 1.665a2.857 2.857 0 0 0 3.82-.151c.528-.52.826-1.224.827-1.96 0-.57-.175-1.098-.474-1.538h1.724a3.15 3.15 0 0 0 2.21-.9c.586-.578.915-1.36.915-2.177 0-.816-.33-1.598-.915-2.175a3.15 3.15 0 0 0-2.21-.902Z"/>
    </symbol>
    <symbol id="icon-adults" viewBox="0 0 32 32">
      <path d="M9.067 24.133h-4.4c-.267 0-.4-.133-.534-.266-.133-.134-.266-.4-.133-.667.8-2.267 2.8-3.6 5.067-3.6 2.8 0 5.066-2.4 5.066-5.2s-2.266-5.467-5.066-5.467S4 11.333 4 14.267c0 1.333.533 2.666 1.333 3.6-1.733.933-3.066 2.4-3.866 4.4a3.668 3.668 0 0 0 .54 3.078l-.008-.012c.667.934 1.6 1.467 2.667 1.467h4.4c.8 0 1.333-.533 1.333-1.333s-.533-1.334-1.333-1.334zm-2.4-9.866c0-1.467 1.066-2.534 2.4-2.534 1.333 0 2.4 1.2 2.4 2.534 0 1.466-1.067 2.533-2.4 2.533-1.334 0-2.4-1.2-2.4-2.533z"/>
      <path d="M30.533 21.467c-.914-2.407-2.658-4.325-4.875-5.441L25.601 16c1.2-1.067 1.867-2.667 1.867-4.533C27.468 8 24.801 5.2 21.601 5.2s-5.867 2.8-5.867 6.267A6.35 6.35 0 0 0 17.601 16c-2.274 1.142-4.019 3.06-4.91 5.399l-.023.069c-.667 1.2-.4 2.533.266 3.6.667 1.066 1.867 1.6 3.067 1.6h11.067c1.2 0 2.4-.667 3.066-1.6.8-1.067.934-2.4.4-3.6zM18.267 11.6c0-2 1.466-3.6 3.2-3.6 1.733 0 3.2 1.6 3.2 3.6s-1.467 3.6-3.2 3.6c-1.734 0-3.2-1.733-3.2-3.6zm9.6 12c-.134.133-.4.533-.8.533H16c-.533 0-.8-.4-.8-.533a1.13 1.13 0 0 1-.13-1.207l-.003.007c1.066-2.8 3.733-4.667 6.533-4.667s5.467 1.867 6.533 4.667c.134.533-.133 1.067-.266 1.2z"/>
    </symbol>
    <symbol id="icon-airConditioner" viewBox="0 0 32 32">
      <path stroke-linejoin="round" stroke-linecap="round" stroke-width="2.4" d="M28.571 1.142H3.429a2.286 2.286 0 0 0-2.286 2.286v11.429a2.286 2.286 0 0 0 2.286 2.285h25.144a2.285 2.285 0 0 0 2.285-2.285V3.426a2.285 2.285 0 0 0-2.285-2.285h-.002z"/>
      <path stroke-linejoin="round" stroke-linecap="round" stroke-width="2.4" d="M25.142 17.142v-4.571a2.285 2.285 0 0 0-2.285-2.285H9.142a2.287 2.287 0 0 0-2.285 2.285v4.571M5.714 28.571h.229a3.2 3.2 0 0 0 3.2-3.2v-2.514m17.143 5.714h-.229a3.2 3.2 0 0 1-3.2-3.2v-2.514M16 30.858v-8"/>
    </symbol>
    <symbol id="icon-alcove" viewBox="0 0 44 32">
      <path d="M2.518 2.29H14.5a.38.38 0 0 0 .267-.109l1.151-1.121a1.777 1.777 0 0 1 1.246-.508h18.187c.863 0 1.625.431 2.084 1.089l.005.008 2.177 3.187c.309.452.338 1.031.075 1.51a1.513 1.513 0 0 1-1.321.777h-9.372v.924h4.816c1.282 0 2.387.762 2.885 1.858l.008.02 2.808 6.42 2.461.96c1.313.513 2.162 1.736 2.162 3.116v5.945c0 .887-.739 1.609-1.649 1.609h-2.862c-.332 1.967-2.089 3.475-4.2 3.475s-3.869-1.507-4.2-3.476H15.583c-.333 1.969-2.09 3.476-4.201 3.476-2.11 0-3.866-1.507-4.2-3.476H1.466c-.81 0-1.466-.64-1.466-1.428v-21.8C0 3.391 1.129 2.29 2.518 2.29zm32.909 27.801c1.58 0 2.867-1.255 2.867-2.797 0-1.542-1.287-2.796-2.867-2.796-1.581 0-2.867 1.255-2.867 2.796 0 1.543 1.286 2.797 2.867 2.797zm-6.428-3.476h2.228l.019-.1.013-.068c.011-.053.024-.106.038-.159l.009-.033c.017-.063.034-.125.055-.188.004-.018.011-.035.018-.054.033-.099.057-.165.083-.23l-.011.031.045-.11.033-.073.047-.105.036-.073.053-.099.039-.072.057-.097.042-.068.064-.097.043-.063.075-.102.039-.053c.086-.109.167-.205.252-.297l-.003.004.041-.042.093-.096.055-.051c.072-.07.148-.137.226-.202l.007-.005.064-.05c.041-.033.091-.071.143-.109l.013-.009.094-.065.066-.044c.033-.022.066-.042.1-.063l.066-.04c.036-.022.074-.042.111-.063l.057-.033c.024-.014.078-.041.132-.067l.031-.014.012-.006c.06-.029.119-.055.18-.079.019-.009.04-.015.058-.023l.126-.049.072-.025c.134-.048.303-.096.476-.134l.029-.005.084-.018c.084-.017.194-.034.306-.047l.018-.002.079-.009.138-.011c.022 0 .045-.003.068-.003a3.35 3.35 0 0 1 .428 0h-.01c.022 0 .044.002.068.004.045.002.092.006.138.011.026.001.053.006.079.008.158.017.297.04.434.071l-.025-.005c.201.042.37.09.535.148l-.029-.009.072.025.126.049.058.022c.061.025.121.052.18.081l.012.006c.055.026.109.053.162.082l.057.032c.039.02.076.041.113.063l.066.04.099.063.067.044.094.066c.062.043.112.082.162.122l-.006-.005.064.05c.086.073.162.14.236.21l-.003-.003.055.051.093.096.041.042c.044.046.086.095.127.143l.017.02c.035.043.071.085.105.13l.039.053.075.102.043.063.064.097.042.068.056.097.04.072.053.099.036.073c.017.035.033.07.047.105l.033.072c.019.041.044.101.066.162l.006.019.045.129.019.055c.019.062.038.124.055.188l.008.033c.013.052.025.105.036.158l.014.068.019.1H42.493a.254.254 0 0 0 .254-.25V23.52h-1.086v-1.357h1.086V20.42a1.99 1.99 0 0 0-1.288-1.856l-2.604-1.015h-9.856v9.067zm0-10.425h8.938l-2.508-5.735a1.779 1.779 0 0 0-1.622-1.053H29v6.787zM11.382 30.091c1.581 0 2.867-1.255 2.867-2.797 0-1.542-1.286-2.796-2.867-2.796-.05 0-.098.001-.147.004-1.318.065-2.402 1.002-2.662 2.229a2.843 2.843 0 0 0-.054.412v.008a2.535 2.535 0 0 0-.003.129v.016-.001c0 1.543 1.286 2.797 2.866 2.797zm-9.991-7.928h1.086v1.357H1.39v3.023c0 .04.033.072.074.072H7.18l.02-.099.013-.071c.011-.052.022-.104.036-.154l.009-.036c.017-.063.035-.125.055-.188l.019-.055.044-.128.028-.07c.04-.102.066-.163.093-.223l-.016.039.047-.103a.739.739 0 0 1 .038-.074l.051-.099.041-.072c.078-.134.146-.24.217-.344l-.012.019.074-.1.041-.055c.033-.043.066-.085.103-.127l.018-.022a4.45 4.45 0 0 1 .127-.143l.042-.044.093-.094.055-.052.085-.081.061-.052.087-.073.064-.052a4.38 4.38 0 0 1 .139-.106l.015-.011c.031-.022.062-.044.094-.064l.066-.045.099-.063.066-.04.113-.063.058-.033c.053-.028.107-.054.161-.079.004-.002.009-.006.014-.007.058-.029.119-.055.179-.079l.184-.072.073-.025c.012-.005.05-.018.089-.03l.027-.007a3.55 3.55 0 0 1 .361-.095l.029-.005.083-.019c.084-.017.194-.034.306-.047l.018-.002.079-.009.139-.011c.022 0 .044-.003.067-.003a3.35 3.35 0 0 1 .428 0h-.01c.023 0 .045.002.068.004.046.002.093.006.138.011.026.001.053.006.079.008.089.01.16.02.23.032l-.023-.003.117.02.084.018c.133.028.237.054.34.085l-.03-.008.079.024c.039.011.077.024.115.038l.073.025.126.049.058.022c.148.062.264.118.377.179l-.023-.011.058.032.113.063.066.04.099.063.067.044.093.066c.06.042.111.08.159.12l-.005-.004.065.052c.03.023.058.049.087.073l.06.052.141.132.093.095.041.044c.082.089.164.184.241.283l.007.01.04.053c.025.033.051.067.074.102l.043.064c.049.07.103.156.153.243l.01.018.04.072.052.099.036.073.049.105.032.072c.017.038.031.075.045.113l.026.068c.017.043.031.086.045.13l.019.053c.02.062.038.126.055.188l.007.031c.014.053.026.107.039.161l.012.066.021.103h12.023V6.448c0-.375.311-.68.695-.68h10.06c.017 0 .07 0 .103-.061a.106.106 0 0 0 .015-.053.098.098 0 0 0-.022-.063l-2.176-3.186a1.139 1.139 0 0 0-.939-.493H17.166a.38.38 0 0 0-.267.109l-1.151 1.122c-.321.313-.76.506-1.244.506h-12c-.61 0-1.106.49-1.114 1.098v17.418z"/>
      <path d="M19.422 7.501h4.402c.888 0 1.612.706 1.612 1.574v14.527a.687.687 0 0 1-.695.679h-6.242a.687.687 0 0 1-.687-.678V9.076c0-.868.722-1.574 1.611-1.574zm-.221 15.421h4.843v-7.981H19.2v7.981zm0-9.339h4.843v-4.51a.218.218 0 0 0-.218-.216H19.421a.22.22 0 0 0-.221.216v4.508h.001zM5.345 7.501h8.51c.984 0 1.784.781 1.784 1.74V13.2c0 .96-.801 1.74-1.784 1.74H5.344c-.983 0-1.783-.78-1.783-1.74V9.241c0-.96.8-1.74 1.784-1.74zm-.393 5.7c0 .21.177.383.393.383h8.514a.388.388 0 0 0 .388-.383V9.242a.39.39 0 0 0-.393-.383H5.34a.388.388 0 0 0-.388.383v3.959z"/>
    </symbol>
    <symbol id="icon-automatic" viewBox="0 0 32 32">
      <path stroke-linejoin="round" stroke-linecap="round" stroke-width="2.4" d="M22.667 14.667h2a2 2 0 1 0 0-4h-2v6.666m0 5.334V28H24a2.666 2.666 0 1 0 0-5.332h-1.333zM4 6.667l-.001.065a2.667 2.667 0 1 0 5.334 0l-.001-.069v.003A2.668 2.668 0 0 0 4 6.662v.003z"/>
      <path stroke-linejoin="round" stroke-linecap="round" stroke-width="2.4" d="M6.667 9.333v4.002c0 .736.597 1.333 1.333 1.333h4m0-.001V24c0 .736.597 1.333 1.333 1.333h4M12 14.667h5.333"/>
    </symbol>
    <symbol id="icon-beds" viewBox="0 0 32 32">
      <path stroke-linejoin="round" stroke-linecap="round" stroke-width="2.24" d="M3 26v-7a4.01 4.01 0 0 1 3.999-4H25a4.01 4.01 0 0 1 4 3.999V26m-5-11H6V8.499A2.507 2.507 0 0 1 8.5 6h15a2.507 2.507 0 0 1 2.499 2.5V15h-2z"/>
      <path stroke-linejoin="round" stroke-linecap="round" stroke-width="2.24" d="M3 26v-.501A1.504 1.504 0 0 1 4.501 24H27.5a1.505 1.505 0 0 1 1.501 1.501V26M7 15v-1a2.007 2.007 0 0 1 2-2h5a2.007 2.007 0 0 1 2 2m0 0v1m0-1a2.006 2.006 0 0 1 2-2h5a2.007 2.007 0 0 1 2 2v1"/>
    </symbol>
    <symbol id="icon-calendar" viewBox="0 0 32 32">
      <path stroke-linejoin="round" stroke-linecap="round" stroke-width="2.4" d="M25.333 5.333H6.667A2.668 2.668 0 0 0 4 8v18.667a2.667 2.667 0 0 0 2.667 2.666h18.666A2.667 2.667 0 0 0 28 26.667V8a2.668 2.668 0 0 0-2.667-2.667zm-4-2.666V8M10.667 2.667V8M4 13.333h24"/>
    </symbol>
    <symbol id="icon-CD" viewBox="0 0 32 32">
      <path stroke-width="2.4" d="M16 28c6.627 0 12-5.373 12-12S22.627 4 16 4 4 9.373 4 16s5.373 12 12 12z"/>
      <path stroke-linecap="round" stroke-width="2.4" d="M8.667 16A7.333 7.333 0 0 1 16 8.667"/>
      <path stroke-width="2.4" d="M16 19.333a3.333 3.333 0 1 0 0-6.666 3.333 3.333 0 1 0 0 6.666z"/>
    </symbol>
    <symbol id="icon-freezer" viewBox="0 0 32 32">
      <path stroke-linejoin="round" stroke-linecap="round" stroke-width="2.08" d="M23.4 3H8.606a2 2 0 0 0-2 2v20.387a2 2 0 0 0 2 2H23.4a2 2 0 0 0 2-2V5a2 2 0 0 0-2-2z"/>
      <path stroke-linejoin="round" stroke-linecap="round" stroke-width="2.08" d="M6.608 13.126h18.784m-15.078-2.56V6.528m0 12.914V15.4M8.426 27.387v.701c0 .502.406.909.907.912h1.648a.912.912 0 0 0 .912-.912v-.701m8.208 0v.701c0 .504.408.912.912.912h1.654a.912.912 0 0 0 .912-.912v-.701"/>
    </symbol>
    <symbol id="icon-fullyIntegrated" viewBox="0 0 44 32">
      <path d="M2.518 2.29H14.5a.38.38 0 0 0 .267-.109l1.151-1.121a1.777 1.777 0 0 1 1.246-.508h18.187c.863 0 1.625.431 2.084 1.089l.005.008 2.177 3.187c.309.452.338 1.031.075 1.51a1.513 1.513 0 0 1-1.321.777h-9.372v.924h4.816c1.282 0 2.387.762 2.885 1.858l.008.02 2.808 6.42 2.461.96c1.313.513 2.162 1.736 2.162 3.116v5.945c0 .887-.739 1.609-1.649 1.609h-2.862c-.332 1.967-2.089 3.475-4.2 3.475s-3.869-1.507-4.2-3.476H15.583c-.333 1.969-2.09 3.476-4.201 3.476-2.11 0-3.866-1.507-4.2-3.476H1.466c-.81 0-1.466-.64-1.466-1.428v-21.8C0 3.391 1.129 2.29 2.518 2.29zm32.909 27.801c1.58 0 2.867-1.255 2.867-2.797 0-1.542-1.287-2.796-2.867-2.796-1.581 0-2.867 1.255-2.867 2.796 0 1.543 1.286 2.797 2.867 2.797zm-6.428-3.476h2.228l.019-.1.013-.068c.011-.053.024-.106.038-.159l.009-.033c.017-.063.034-.125.055-.188.004-.018.011-.035.018-.054.033-.099.057-.165.083-.23l-.011.031.045-.11.033-.073.047-.105.036-.073.053-.099.039-.072.057-.097.042-.068.064-.097.043-.063.075-.102.039-.053c.086-.109.167-.205.252-.297l-.003.004.041-.042.093-.096.055-.051c.072-.07.148-.137.226-.202l.007-.005.064-.05c.041-.033.091-.071.143-.109l.013-.009.094-.065.066-.044c.033-.022.066-.042.1-.063l.066-.04c.036-.022.074-.042.111-.063l.057-.033c.024-.014.078-.041.132-.067l.031-.014.012-.006c.06-.029.119-.055.18-.079.019-.009.04-.015.058-.023l.126-.049.072-.025c.134-.048.303-.096.476-.134l.029-.005.084-.018c.084-.017.194-.034.306-.047l.018-.002.079-.009.138-.011c.022 0 .045-.003.068-.003a3.35 3.35 0 0 1 .428 0h-.01c.022 0 .044.002.068.004.045.002.092.006.138.011.026.001.053.006.079.008.158.017.297.04.434.071l-.025-.005c.201.042.37.09.535.148l-.029-.009.072.025.126.049.058.022c.061.025.121.052.18.081l.012.006c.055.026.109.053.162.082l.057.032c.039.02.076.041.113.063l.066.04.099.063.067.044.094.066c.062.043.112.082.162.122l-.006-.005.064.05c.086.073.162.14.236.21l-.003-.003.055.051.093.096.041.042c.044.046.086.095.127.143l.017.02c.035.043.071.085.105.13l.039.053.075.102.043.063.064.097.042.068.056.097.04.072.053.099.036.073c.017.035.033.07.047.105l.033.072c.019.041.044.101.066.162l.006.019.045.129.019.055c.019.062.038.124.055.188l.008.033c.013.052.025.105.036.158l.014.068.019.1H42.493a.254.254 0 0 0 .254-.25V23.52h-1.086v-1.357h1.086V20.42a1.99 1.99 0 0 0-1.288-1.856l-2.604-1.015h-9.856v9.067zm0-10.425h8.938l-2.508-5.735a1.779 1.779 0 0 0-1.622-1.053H29v6.787zM11.382 30.091c1.581 0 2.867-1.255 2.867-2.797 0-1.542-1.286-2.796-2.867-2.796-.05 0-.098.001-.147.004-1.318.065-2.402 1.002-2.662 2.229a2.843 2.843 0 0 0-.054.412v.008a2.535 2.535 0 0 0-.003.129v.016-.001c0 1.543 1.286 2.797 2.866 2.797zm-9.991-7.928h1.086v1.357H1.39v3.023c0 .04.033.072.074.072H7.18l.02-.099.013-.071c.011-.052.022-.104.036-.154l.009-.036c.017-.063.035-.125.055-.188l.019-.055.044-.128.028-.07c.04-.102.066-.163.093-.223l-.016.039.047-.103a.739.739 0 0 1 .038-.074l.051-.099.041-.072c.078-.134.146-.24.217-.344l-.012.019.074-.1.041-.055c.033-.043.066-.085.103-.127l.018-.022a4.45 4.45 0 0 1 .127-.143l.042-.044.093-.094.055-.052.085-.081.061-.052.087-.073.064-.052a4.38 4.38 0 0 1 .139-.106l.015-.011c.031-.022.062-.044.094-.064l.066-.045.099-.063.066-.04.113-.063.058-.033c.053-.028.107-.054.161-.079.004-.002.009-.006.014-.007.058-.029.119-.055.179-.079l.184-.072.073-.025c.012-.005.05-.018.089-.03l.027-.007a3.55 3.55 0 0 1 .361-.095l.029-.005.083-.019c.084-.017.194-.034.306-.047l.018-.002.079-.009.139-.011c.022 0 .044-.003.067-.003a3.35 3.35 0 0 1 .428 0h-.01c.023 0 .045.002.068.004.046.002.093.006.138.011.026.001.053.006.079.008.089.01.16.02.23.032l-.023-.003.117.02.084.018c.133.028.237.054.34.085l-.03-.008.079.024c.039.011.077.024.115.038l.073.025.126.049.058.022c.148.062.264.118.377.179l-.023-.011.058.032.113.063.066.04.099.063.067.044.093.066c.06.042.111.08.159.12l-.005-.004.065.052c.03.023.058.049.087.073l.06.052.141.132.093.095.041.044c.082.089.164.184.241.283l.007.01.04.053c.025.033.051.067.074.102l.043.064c.049.07.103.156.153.243l.01.018.04.072.052.099.036.073.049.105.032.072c.017.038.031.075.045.113l.026.068c.017.043.031.086.045.13l.019.053c.02.062.038.126.055.188l.007.031c.014.053.026.107.039.161l.012.066.021.103h12.023V6.448c0-.375.311-.68.695-.68h10.06c.017 0 .07 0 .103-.061a.106.106 0 0 0 .015-.053.098.098 0 0 0-.022-.063l-2.176-3.186a1.139 1.139 0 0 0-.939-.493H17.166a.38.38 0 0 0-.267.109l-1.151 1.122c-.321.313-.76.506-1.244.506h-12c-.61 0-1.106.49-1.114 1.098v17.418z"/>
      <path d="M19.422 7.501h4.402c.888 0 1.612.706 1.612 1.574v14.527a.687.687 0 0 1-.695.679h-6.242a.687.687 0 0 1-.687-.678V9.076c0-.868.722-1.574 1.611-1.574zm-.221 15.421h4.843v-7.981H19.2v7.981zm0-9.339h4.843v-4.51a.218.218 0 0 0-.218-.216H19.421a.22.22 0 0 0-.221.216l.001 4.508z"/>
    </symbol>
    <symbol id="icon-gas" viewBox="0 0 32 32">
      <path d="M25.072 13.992c-.368-.454-.816-.848-1.232-1.24-1.072-.906-2.288-1.557-3.312-2.509-2.384-2.206-2.912-5.848-1.392-8.643-1.52.347-2.848 1.133-3.982 1.995-4.144 3.142-5.776 8.688-3.824 13.448.064.152.128.304.128.499 0 .333-.24.635-.56.755-.368.152-.752.061-1.056-.181a.89.89 0 0 1-.222-.252l-.002-.004c-1.808-2.162-2.096-5.259-.88-7.738-2.67 2.054-4.126 5.531-3.918 8.81.096.755.192 1.512.464 2.267.224.906.656 1.813 1.136 2.614 1.728 2.614 4.72 4.488 7.936 4.864 3.422.41 7.085-.179 9.709-2.416 2.928-2.509 3.952-6.528 2.448-9.974l-.208-.392c-.336-.696-1.232-1.904-1.232-1.904zm-5.056 9.52c-.448.362-1.184.755-1.76.906-1.792.605-3.582-.24-4.638-1.238 1.904-.422 3.04-1.752 3.376-3.098.272-1.21-.24-2.206-.448-3.37-.192-1.12-.16-2.07.272-3.114.304.574.624 1.149 1.008 1.602 1.232 1.512 3.168 2.176 3.584 4.232a2.2 2.2 0 0 1 .096.65c.048 1.238-.528 2.598-1.488 3.43z"/>
    </symbol>
    <symbol id="icon-heart" viewBox="0 0 32 32">
      <path stroke-linejoin="round" stroke-linecap="round" stroke-width="3.067" d="M27.787 6.147C26.46 4.819 24.626 3.998 22.6 3.998s-3.859.821-5.187 2.149L16 7.56l-1.413-1.413A7.335 7.335 0 0 0 4.213 16.521L16 28.308l11.787-11.787c1.328-1.327 2.149-3.161 2.149-5.187s-.821-3.859-2.149-5.187z"/>
    </symbol>
    <symbol id="icon-hob" viewBox="0 0 32 32">
      <path stroke-width="2.4" d="M12 6.667h16a1.335 1.335 0 0 1 1.334 1.334v17.333A1.335 1.335 0 0 1 28 26.668H12m0-20.001H4a1.33 1.33 0 0 0-1.333 1.334v17.333A1.333 1.333 0 0 0 4 26.668h8m0-20.001v20"/>
      <path stroke-linejoin="round" stroke-linecap="round" stroke-width="2.4" d="M7.333 11.333V14m17.334-3.333-8 11.333"/>
      <path d="M8.667 18A1.333 1.333 0 1 0 6 18a1.333 1.333 0 0 0 2.667 0zM8.667 22A1.333 1.333 0 1 0 6 22a1.333 1.333 0 0 0 2.667 0z"/>
    </symbol>
    <symbol id="icon-kitchen" viewBox="0 0 32 32">
      <path stroke-linejoin="round" stroke-linecap="round" stroke-width="2.4" d="M25.333 20V4c-6.421 6.125-6.696 11.091-6.666 16h6.666zm0 0v8H24v-4M10.667 5.333V28m-4-22.667v4a4 4 0 0 0 8 0v-4"/>
    </symbol>
    <symbol id="icon-map-pin" viewBox="0 0 29 32">
      <path stroke-linejoin="round" stroke-linecap="round" stroke-width="2.4" d="M26.4 13.333c0 9.334-12 17.334-12 17.334s-12-8-12-17.334c0-6.627 5.373-12 12-12s12 5.373 12 12z"/>
      <path stroke-linejoin="round" stroke-linecap="round" stroke-width="2.4" d="M14.4 17.333a4 4 0 0 0 0-8 4 4 0 0 0 0 8z"/>
    </symbol>
    <symbol id="icon-microwave" viewBox="0 0 32 32">
      <path stroke-linejoin="round" stroke-linecap="round" stroke-width="2.24" d="M29.714 5.714H2.286c-.631 0-1.142.511-1.142 1.142V25.145c0 .631.511 1.142 1.142 1.142H29.714c.631 0 1.142-.511 1.142-1.142V6.858c0-.632-.512-1.144-1.144-1.144z"/>
      <path stroke-linejoin="round" stroke-linecap="round" stroke-width="2.24" d="M25.142 11.429h1.144M25.142 16h1.144m-6.857-5.714H6.856c-.631 0-1.142.511-1.142 1.142v9.142a1.144 1.144 0 0 0 1.144 1.142h12.571c.631 0 1.142-.511 1.142-1.142v-9.142c0-.631-.511-1.142-1.142-1.142z"/>
    </symbol>
    <symbol id="icon-petrol" viewBox="0 0 32 32">
      <path d="m26.36 9.64.013-.013-4.96-4.96L20 6.08l2.813 2.813a3.33 3.33 0 0 0-2.148 3.109c0 .92.374 1.753.979 2.355a3.335 3.335 0 0 0 3.711.688l-.021.008v9.614a1.333 1.333 0 0 1-2.666 0v-6A2.667 2.667 0 0 0 20.001 16h-1.333V6.667A2.667 2.667 0 0 0 16.001 4h-8a2.667 2.667 0 0 0-2.667 2.667V28h13.334V18h2v6.667a3.333 3.333 0 1 0 6.666 0V12c0-.92-.373-1.76-.973-2.36zM16 18v7.333H8V16h8v2zm0-4.667H8V6.667h8v6.666zm8 0a1.333 1.333 0 0 1 0-2.666 1.333 1.333 0 0 1 0 2.666z"/>
    </symbol>
    <symbol id="icon-radio" viewBox="0 0 32 32">
      <path stroke-width="2.08" d="M2.667 18.667c0-5.029 0-7.544 1.562-9.104C5.792 8 8.306 8 13.333 8h5.334c5.027 0 7.542 0 9.104 1.563 1.562 1.56 1.562 4.075 1.562 9.104 0 5.027 0 7.542-1.562 9.104s-4.077 1.562-9.104 1.562h-5.334c-5.027 0-7.542 0-9.104-1.562s-1.562-4.077-1.562-9.104z"/>
      <path stroke-width="2.08" d="M6.667 14.667A2.667 2.667 0 0 1 9.333 12h13.335a2.666 2.666 0 1 1 0 5.332H9.334a2.668 2.668 0 0 1-2.666-2.665zm5.333 8a2 2 0 1 1-4 0 2 2 0 1 1 4 0z"/>
      <path stroke-linecap="round" stroke-width="2.08" d="M20 15.333v2m-2.667 5.334H24M8.667 8 20 2.667"/>
    </symbol>
    <symbol id="icon-route" viewBox="0 0 32 32">
      <path d="m6.667 4-.065-.001a2.667 2.667 0 1 0 0 5.334l.069-.001h-.003A2.668 2.668 0 0 0 6.672 4h-.003zM1.333 6.667a5.334 5.334 0 1 1 10.668 0 5.334 5.334 0 1 1-10.668 0zm24 16-.065-.001a2.667 2.667 0 1 0 0 5.334l.069-.001h-.003a2.668 2.668 0 0 0 .003-5.332h-.003zM20 25.333a5.334 5.334 0 1 1 10.668 0 5.334 5.334 0 1 1-10.668 0z"/>
      <path d="M13.333 6.667c0-.736.597-1.334 1.334-1.334h8.4c4.13 0 5.619 5.405 1.987 7.429L9.582 21.567a1.296 1.296 0 0 0 .618 2.435l.069-.002h-.003 7.066a1.334 1.334 0 1 1 0 2.668h-7.064c-4.131 0-5.619-5.405-1.987-7.429l15.472-8.805a1.296 1.296 0 0 0-.618-2.435l-.07.002h.003H14.666a1.333 1.333 0 0 1-1.333-1.333z"/>
    </symbol>
    <symbol id="icon-shower" viewBox="0 0 32 32">
      <path stroke-linejoin="round" stroke-linecap="round" stroke-width="2.56" d="m5.333 5.333 3.334 3.334m9.333 0a6.6 6.6 0 0 0-9.332 9.334l-.002-.002M20 6.667 6.667 20m12 2.667v.013m-5.334-1.347v.014m4-4.014v.014m4-4.014v.014m-6.666 13.32v.013m8-8.013v.013m4-4.013v.013"/>
    </symbol>
    <symbol id="icon-star" viewBox="0 0 32 32">
      <path stroke-width="2.4" d="M12.4 9.394 16 2.572l3.6 6.822a2.2 2.2 0 0 0 1.571 1.141l7.601 1.315-5.376 5.532a2.2 2.2 0 0 0-.6 1.846l1.098 7.635-6.922-3.404a2.199 2.199 0 0 0-1.941 0l-6.922 3.404 1.098-7.635a2.2 2.2 0 0 0-.6-1.846L3.231 11.85l7.601-1.315a2.202 2.202 0 0 0 1.571-1.141zm16.635 2.185zM7.767 27.031z"/>
    </symbol>
    <symbol id="icon-TV" viewBox="0 0 32 32">
      <path stroke-linejoin="round" stroke-linecap="round" stroke-width="1.8" d="M24 26H8c-2.216 0-4-1.784-4-4V12c0-2.216 1.784-4 4-4h16c2.216 0 4 1.784 4 4v10c0 2.216-1.784 4-4 4zm-12 4h8M16 8l6-6m-6 6-6-6"/>
    </symbol>
    <symbol id="icon-toilet" viewBox="0 0 32 32">
      <path d="M24 4c1.939 0 3.269 1.648 4.04 3.312.762 1.654 1.224 3.811 1.286 6.147l.006.541v12.67c0 .735-.596 1.331-1.331 1.331L27.944 28h.003l-.166-.019L24 27.352l-3.781.629a1.357 1.357 0 0 1-.492-.01l.009.002-.157-.042L16 26.739l-3.579 1.192a1.334 1.334 0 0 1-1.744-1.099l-.001-.006-.01-.16v-3.902c-.709.734-1.595 1.237-2.667 1.237-1.939 0-3.269-1.648-4.04-3.312-.819-1.781-1.293-4.147-1.293-6.688s.472-4.907 1.293-6.688c.736-1.59 1.981-3.163 3.779-3.301l.261-.011h16zm0 2.667H11.709c.12.213.23.429.33.646.821 1.779 1.296 4.144 1.296 6.686v10.816l2.245-.747a1.328 1.328 0 0 1 .851.003l-.009-.003 3.688 1.229 3.672-.613a1.419 1.419 0 0 1 .446.001l-.008-.001 2.448.408V13.999c0-2.245-.424-4.213-1.05-5.568-.677-1.472-1.347-1.765-1.618-1.765zm-16 0c-.272 0-.941.293-1.616 1.763-.629 1.357-1.051 3.325-1.051 5.57s.422 4.213 1.05 5.568c.677 1.472 1.347 1.765 1.618 1.765.272 0 .939-.293 1.616-1.763.627-1.357 1.051-3.325 1.051-5.57s-.424-4.213-1.05-5.568C8.94 6.96 8.271 6.666 8 6.666zm0 4.666c.736 0 1.333 1.194 1.333 2.667 0 1.472-.597 2.667-1.333 2.667S6.667 15.473 6.667 14c0-1.472.597-2.667 1.333-2.667z"/>
    </symbol>
    <symbol id="icon-van" viewBox="0 0 46 32">
      <path d="M2.608 1.8h12.41a.393.393 0 0 0 .277-.113L16.487.526A1.84 1.84 0 0 1 17.777 0H36.613c.894 0 1.683.446 2.158 1.127l.006.009 2.255 3.301c.32.469.35 1.067.078 1.563a1.57 1.57 0 0 1-1.368.805h-9.707v.957H35.023a3.28 3.28 0 0 1 2.988 1.925l.008.021 2.909 6.649 2.549.994c1.36.531 2.239 1.798 2.239 3.227v6.158c0 .919-.766 1.666-1.707 1.666h-2.965c-.344 2.038-2.162 3.599-4.35 3.599s-4.007-1.561-4.35-3.6H16.141c-.345 2.04-2.165 3.6-4.351 3.6-2.185 0-4.005-1.561-4.35-3.6H1.52c-.839 0-1.519-.663-1.519-1.479V4.344C.001 2.941 1.17 1.8 2.609 1.8zm34.085 28.794c1.637 0 2.969-1.299 2.969-2.897 0-1.597-1.333-2.896-2.969-2.896-1.638 0-2.969 1.299-2.969 2.896 0 1.598 1.331 2.897 2.969 2.897zm-6.659-3.6h2.307l.019-.104.014-.071c.011-.055.025-.11.039-.165l.009-.034a2.842 2.842 0 0 1 .075-.25c.034-.102.059-.171.086-.238l-.011.032.047-.114.034-.075.049-.109.038-.075.055-.103.04-.074.059-.101.043-.071.066-.101.045-.065c.025-.035.05-.071.078-.105l.04-.055a5.31 5.31 0 0 1 .261-.308l-.003.004.042-.043.096-.099.057-.053c.075-.072.153-.142.234-.209l.007-.005.066-.051c.042-.034.094-.074.148-.113l.013-.009.097-.067.069-.046c.034-.023.069-.043.104-.065l.069-.041c.038-.023.077-.043.115-.065l.059-.034c.025-.015.081-.043.137-.069l.032-.014.013-.006c.062-.03.123-.057.186-.082.019-.009.041-.016.061-.024l.13-.05.074-.026a4.08 4.08 0 0 1 .493-.138l.03-.006.087-.018c.087-.018.201-.036.317-.049l.019-.002.082-.009.143-.011c.023 0 .047-.003.071-.003a3.612 3.612 0 0 1 .442 0h-.01c.023 0 .046.002.071.005.047.002.095.006.143.011.027.001.055.006.082.008.164.018.308.042.449.074l-.026-.005c.208.044.383.093.554.153l-.03-.009.074.026.13.05.061.023c.063.026.126.054.186.083l.013.006c.057.027.113.055.168.085l.059.033c.04.021.079.042.117.065l.069.041.103.065.07.046.097.069c.064.045.116.085.167.126l-.006-.005.066.051c.089.075.167.145.244.218l-.003-.003.057.053.096.099.042.043c.046.048.089.098.131.149l.017.021c.037.045.073.088.109.135l.04.055.078.105.045.065.066.101.043.071.058.101.041.074.055.103.038.075c.017.037.034.072.049.109l.034.074c.02.043.045.105.068.168l.006.02.047.134.019.057c.019.064.039.128.057.194l.008.034c.014.054.026.109.038.163l.015.071.019.104h2.966a.263.263 0 0 0 .263-.259v-2.946h-1.125v-1.406h1.125v-1.806a2.06 2.06 0 0 0-1.334-1.922l-2.697-1.051H30.031V27zm0-10.797h9.257l-2.598-5.939a1.843 1.843 0 0 0-1.68-1.09h-4.979v7.03zM11.789 30.594c1.638 0 2.969-1.299 2.969-2.897 0-1.597-1.331-2.896-2.969-2.896-.051 0-.102.001-.152.005-1.365.067-2.488 1.038-2.757 2.309a2.897 2.897 0 0 0-.056.426v.008a2.73 2.73 0 0 0-.003.133v.016-.001c0 1.598 1.331 2.897 2.968 2.897zM1.441 22.383h1.125v1.406H1.44v3.131c0 .041.034.074.077.074h5.92l.021-.103c.005-.024.008-.049.014-.073.011-.054.023-.107.038-.16l.009-.038c.017-.065.037-.129.057-.194l.019-.057.046-.133.029-.072c.041-.106.068-.169.096-.231l-.016.04.049-.106c.011-.026.025-.051.039-.077l.053-.103.042-.074c.081-.139.151-.249.225-.356l-.013.019.077-.104.042-.057c.034-.045.069-.088.106-.131l.018-.023c.043-.05.087-.101.131-.149l.043-.046.096-.097.057-.054.088-.083.063-.054.09-.075.066-.054c.039-.032.092-.071.144-.11l.016-.011c.032-.023.064-.046.097-.066l.069-.047.103-.065.069-.041.117-.065.061-.034c.055-.029.111-.056.167-.082.005-.002.009-.006.015-.007.061-.03.123-.057.185-.082l.191-.074.075-.026c.012-.005.052-.019.092-.031l.028-.008c.101-.033.236-.069.374-.099l.03-.005.086-.019c.087-.018.201-.036.317-.049l.019-.002.082-.009.144-.011c.023 0 .046-.003.07-.003a3.612 3.612 0 0 1 .442 0h-.01c.024 0 .047.002.071.005.048.002.096.006.143.011.027.001.055.006.082.008a4.1 4.1 0 0 1 .239.033l-.024-.003.121.021.087.018c.138.029.246.056.352.088l-.031-.008.082.025c.04.011.08.025.119.039l.075.026.13.05.061.023c.153.064.274.122.391.186l-.024-.012.061.033.117.065.069.041.103.065.07.046.096.069c.062.043.114.083.165.124l-.005-.004.067.054c.031.024.061.05.09.075l.062.054.146.137.096.098.042.046c.085.092.169.191.249.293l.008.01.041.055c.026.034.053.07.077.105l.045.066c.051.073.107.161.159.252l.01.019.041.074.054.103.038.075.05.109.033.074c.017.039.032.078.047.117l.027.071c.017.045.032.089.047.135l.019.055c.021.064.039.13.057.194l.007.032c.015.055.027.111.04.167l.013.069.022.106h12.453V6.106c0-.389.322-.704.72-.704h10.419c.017 0 .072 0 .106-.063a.104.104 0 0 0-.007-.12L37.579 1.92a1.183 1.183 0 0 0-.972-.511H17.784a.393.393 0 0 0-.277.113l-1.192 1.162a1.84 1.84 0 0 1-1.289.525H2.596c-.632 0-1.145.508-1.154 1.137v18.04z"/>
      <path d="M5.536 7.198h8.814c1.019 0 1.848.809 1.848 1.802v4.101c0 .994-.83 1.802-1.848 1.802H5.535c-1.018 0-1.847-.808-1.847-1.802V9c0-.994.829-1.802 1.848-1.802zm-.407 5.903c0 .217.183.397.407.397h8.819c.22 0 .399-.177.402-.396V9.001a.403.403 0 0 0-.407-.397H5.532A.402.402 0 0 0 5.13 9v4.101z"/>
    </symbol>
    <symbol id="icon-water" viewBox="0 0 32 32">
      <path stroke-miterlimit="10" stroke-width="2.4" d="M25 20c0 5.523-3.477 9-9 9s-9-3.477-9-9c0-5.926 6.451-13.928 8.432-16.243a.75.75 0 0 1 1.137-.001l.001.001C18.549 6.072 25 14.074 25 20z"/>
      <path stroke-linejoin="round" stroke-linecap="round" stroke-width="2.4" d="M21.501 20.501A4.499 4.499 0 0 1 17.002 25H17"/>
    </symbol>
    <symbol id="icon-cross" viewBox="0 0 32 32">
      <path stroke-linejoin="round" stroke-linecap="round" stroke-width="3" d="M24 8 8 24M8 8l16 16"/>
    </symbol>
  </defs>
</svg>
